<?xml version="1.0" ?><svg viewBox="0 0 64 64" xmlns="http://www.w3.org/2000/svg"><g id="a"/><g id="b"/><g id="c"/><g id="d"/><g id="e"/><g id="f"/><g id="g"/><g id="h"/><g id="i"/><g id="j"/><g id="k"><path d="M5.04,25.35c.01,.27,.12,.53,.3,.73l25.96,26.77c.15,.15,.35,.24,.56,.26h.3c.21-.03,.4-.12,.55-.26l25.96-26.77c.19-.2,.31-.45,.34-.73l-26.74-5.09L5.04,25.35Z" fill="#e5c9f3" id="l"/><path d="M41.46,25.35H23.04l8.8,27.76c.1,.02,.2,.02,.3,0l9.31-27.76Z" fill="#d6b1ed" id="m"/><path d="M15.47,11.07c-.28,.14-.53,.35-.72,.6L5.24,24.53c-.16,.24-.23,.53-.2,.81H58.99c.03-.29-.05-.59-.22-.83l-9.08-12.83c-.18-.26-.42-.46-.7-.61H15.47Z" fill="#d6b1ed" id="n"/><path d="M32.23,10.86l-9.18,14.48h18.41l-9.23-14.48Z" fill="#e5c9f3" id="o"/><path d="M32.23,10.86l9.23,14.48,7.53-14.26c-.28-.14-.59-.22-.9-.22h-15.86Z" fill="#ca96e5" id="p"/><path d="M16.37,10.86c-.31,0-.62,.07-.9,.21l7.58,14.27,9.18-14.48h-15.86Z" fill="#ca96e5" id="q"/></g><g id="r"/><g id="s"/><g id="t"/><g id="u"/><g id="v"/><g id="w"/><g id="x"/><g id="y"/><g id="a`"/><g id="aa"/><g id="ab"/><g id="ac"/><g id="ad"/><g id="ae"/><g id="af"/><g id="ag"/><g id="ah"/><g id="ai"/><g id="aj"/><g id="ak"/><g id="al"/><g id="am"/><g id="an"/><g id="ao"/><g id="ap"/><g id="aq"/><g id="ar"/><g id="as"/><g id="at"/><g id="au"/><g id="av"/><g id="aw"/><g id="ax"/><g id="ay"/><g id="b`"/><g id="ba"/><g id="bb"/><g id="bc"/><g id="bd"/></svg>